# xmcd CD database file
#
# Track frame offsets:
#	150
#	22685
#	39515
#	65791
#	85533
#	96589
#	128316
#	140570
#	154711
#	168156
#	184213
#
# Disc length: 2821 seconds
#
# Revision: 9
# Processed by: cddbd v1.5.1PL2 Copyright (c) Steve Scherf et al.
# Submitted via: CDex 1.50
#
DISCID=840b030b
DTITLE=Walkin' Blues - On The Road
DYEAR=1996
DGENRE=Blues
TTITLE0=Walkin' Blues
TTITLE1=She's So Fine
TTITLE2=Leave Me More
TTITLE3=Me Telefona
TTITLE4=I've Been Told You
TTITLE5=Harmonin' Blues
TTITLE6=I Get A Tail
TTITLE7=Sea Of Love
TTITLE8=I Got A Woman
TTITLE9=Young Boy Blues
TTITLE10=Rockin' At Midnight
EXTD=YEAR: 1996
EXTT0=
EXTT1=
EXTT2=
EXTT3=
EXTT4=
EXTT5=
EXTT6=
EXTT7=
EXTT8=
EXTT9=
EXTT10=
PLAYORDER=
